<svg width="19" height="20" viewBox="0 0 19 20" fill="none" xmlns="http://www.w3.org/2000/svg">
<path fill-rule="evenodd" clip-rule="evenodd" d="M0.931153 0.90348C0.757504 0.984167 0.598325 1.14374 0.541934 1.29359C0.419156 1.61974 0.576283 2.04261 0.878976 2.20076C0.932346 2.22862 1.53654 2.35499 2.22162 2.48154C2.90675 2.60809 3.47447 2.7187 3.4833 2.72731C3.49211 2.73596 3.97438 5.15638 4.555 8.10605C5.13562 11.0557 5.63743 13.5406 5.67014 13.628C5.74787 13.8355 5.94915 13.9993 6.18762 14.049C6.31547 14.0756 8.03056 14.085 11.5045 14.0782L16.6327 14.0682L16.7912 13.9832C17.0951 13.8202 17.0579 13.9471 17.9953 9.87469C18.9443 5.75171 18.9259 5.86145 18.716 5.59659C18.655 5.51957 18.5311 5.41863 18.4408 5.37231L18.2765 5.28807H11.8744H5.47236L5.14524 3.61255C4.96533 2.69103 4.78549 1.86633 4.74558 1.77992C4.66058 1.59582 4.49197 1.4556 4.2858 1.39753C4.05773 1.33331 1.30601 0.832378 1.18648 0.833314C1.12811 0.833764 1.0132 0.865327 0.931153 0.90348ZM17.2098 6.7951C17.2092 6.82086 16.9096 8.13926 16.5439 9.72492L15.879 12.6079L11.4007 12.6175L6.92246 12.627L6.88222 12.4302C6.8601 12.322 6.60724 11.0373 6.32036 9.57516C6.03344 8.11305 5.7899 6.87889 5.77912 6.83254L5.75954 6.7483H11.4852C16.0413 6.7483 17.2106 6.75785 17.2098 6.7951ZM6.77548 15.2484C5.42563 15.6034 4.66174 17.0373 5.1166 18.3622C5.70285 20.0697 7.86246 20.5524 9.11665 19.2563C9.52907 18.8301 9.74613 18.3247 9.77902 17.714C9.86693 16.082 8.34776 14.8349 6.77548 15.2484ZM13.9525 15.2321C13.4856 15.3455 12.9866 15.6635 12.6605 16.0554C12.4783 16.2743 12.2402 16.7567 12.1721 17.0448C12.1453 17.1581 12.1237 17.4108 12.1242 17.6064C12.1256 18.2635 12.3597 18.8107 12.8469 19.2958C13.5911 20.037 14.6494 20.2076 15.5929 19.7384C16.4967 19.2889 17.0184 18.3272 16.9087 17.313C16.8457 16.7308 16.6476 16.3286 16.2045 15.8828C15.8509 15.5271 15.5176 15.3331 15.0849 15.231C14.7862 15.1605 14.2448 15.1611 13.9525 15.2321ZM7.86817 16.7529C8.1822 16.9544 8.33224 17.2252 8.33355 17.5928C8.33649 18.4224 7.326 18.8561 6.73397 18.2793C6.53328 18.0837 6.46328 17.9347 6.44094 17.655C6.40789 17.2419 6.60481 16.8953 6.97281 16.7186C7.23105 16.5947 7.6463 16.6106 7.86817 16.7529ZM14.9179 16.703C15.3593 16.9043 15.5841 17.4457 15.4235 17.9202C15.3551 18.1221 15.1384 18.3507 14.9171 18.4544C14.4085 18.6926 13.793 18.4164 13.6118 17.8687C13.459 17.4068 13.6996 16.8904 14.1615 16.6889C14.3368 16.6124 14.7356 16.6199 14.9179 16.703Z" fill="#4092F1"/>
</svg>
