<svg width="12" height="12" viewBox="0 0 12 12" fill="none" xmlns="http://www.w3.org/2000/svg">
<path d="M0 6.64102C0 6.25866 0.311454 5.94871 0.695653 5.94871C1.07985 5.94871 1.39131 6.25866 1.39131 6.64101V11.3077C1.39131 11.69 1.07985 12 0.695653 12C0.311454 12 0 11.69 0 11.3077V6.64102Z" fill="#1A1A1A"/>
<path d="M5.30439 0.692306C5.30439 0.309956 5.61584 0 6.00004 0C6.38424 0 6.69569 0.309956 6.69569 0.692307V11.3077C6.69569 11.69 6.38424 12 6.00004 12C5.61584 12 5.30439 11.69 5.30439 11.3077V0.692306Z" fill="#1A1A1A"/>
<path d="M10.6087 3.87181C10.6087 3.48945 10.9201 3.1795 11.3043 3.1795C11.6885 3.1795 12 3.48945 12 3.87181V11.3077C12 11.69 11.6885 12 11.3043 12C10.9201 12 10.6087 11.69 10.6087 11.3077V3.87181Z" fill="#1A1A1A"/>
</svg>
