<svg width="16" height="12" viewBox="0 0 16 12" fill="none" xmlns="http://www.w3.org/2000/svg">
<path fill-rule="evenodd" clip-rule="evenodd" d="M4.11279 0.0430958C2.42252 0.301073 1.10557 1.52244 0.733285 3.17727C0.643349 3.5771 0.644813 4.3426 0.736298 4.76166C0.828902 5.1857 0.917087 5.43074 1.12686 5.84678C1.43443 6.45687 1.81349 6.90175 2.80599 7.81739C3.82011 8.75302 4.92789 9.70212 6.63589 11.0987C7.17313 11.5381 7.6503 11.9168 7.69627 11.9403C7.81304 12.0002 8.08405 12.0196 8.2143 11.9774C8.33147 11.9394 8.45027 11.8483 9.46327 11.0201C11.6236 9.25401 13.4184 7.67232 14.081 6.9507C14.4782 6.51818 14.6867 6.22618 14.8893 5.8186C15.079 5.43725 15.1758 5.16248 15.2661 4.7494C15.3494 4.36825 15.3568 3.59846 15.2805 3.23967C15.0143 1.98704 14.2279 0.97089 13.1023 0.424918C11.9966 -0.111386 10.737 -0.141234 9.61232 0.342251C9.11914 0.554231 8.77148 0.794677 8.28033 1.26348L8.00094 1.53011L7.69205 1.23569C7.22297 0.788589 6.84859 0.534727 6.34342 0.321169C5.67389 0.0381635 4.83247 -0.0667411 4.11279 0.0430958ZM5.18995 1.31227C5.61472 1.38377 5.97254 1.52382 6.32135 1.75508C6.41605 1.81788 6.7518 2.1187 7.06746 2.42357C7.50007 2.84136 7.66967 2.98722 7.75619 3.01577C7.916 3.06853 8.16575 3.06174 8.28708 3.00134C8.34232 2.97383 8.63287 2.71402 8.93275 2.424C9.23263 2.13397 9.564 1.83707 9.66911 1.76424C9.92167 1.58921 10.2407 1.44708 10.5794 1.35863C10.815 1.29713 10.9163 1.28656 11.2715 1.28656C11.6305 1.28656 11.727 1.29685 11.9746 1.36134C13.2972 1.70593 14.1618 2.91754 14.0243 4.23367C13.9686 4.76625 13.7548 5.30746 13.4299 5.73779C13.1408 6.12071 12.2917 6.93529 11.1559 7.91922C10.0627 8.86638 8.04754 10.5396 8.00011 10.5396C7.98619 10.5396 7.64797 10.271 7.24851 9.94279C4.7411 7.88241 3.02794 6.34394 2.57938 5.74977C2.06889 5.07355 1.86213 4.24923 2.00636 3.46515C2.26859 2.03938 3.71181 1.06342 5.18995 1.31227Z" fill="#1A1A1A"/>
</svg>
