<svg width="15" height="15" viewBox="0 0 15 15" fill="none" xmlns="http://www.w3.org/2000/svg">
<path d="M4.27897 9.46926L4.88855 8.8905L5.16812 9.24503C4.17094 8.08234 3.65573 6.4961 3.93826 4.81019C4.32883 2.50142 6.2567 0.657725 8.58345 0.375357C12.0985 -0.0564995 15.0568 2.90006 14.6247 6.41305C14.3421 8.73843 12.4974 10.6652 10.1872 11.0555C8.50035 11.3379 6.91318 10.823 5.7498 9.82638L6.10694 10.1075L5.52544 10.715L1.99377 14.2446C1.65307 14.5851 1.09631 14.5851 0.75561 14.2446C0.414907 13.9041 0.414907 13.3477 0.75561 13.0072L4.27897 9.46926ZM9.26485 9.46926C11.334 9.46926 13.0043 7.79997 13.0043 5.73204C13.0043 3.66411 11.334 1.99482 9.26485 1.99482C7.19571 1.99482 5.52544 3.66411 5.52544 5.73204C5.52544 7.79997 7.19571 9.46926 9.26485 9.46926Z" fill="#6A727B"/>
<path d="M9.66675 4.08331C9.66675 3.85319 9.4802 3.66665 9.25008 3.66665C9.01996 3.66665 8.83342 3.85319 8.83342 4.08331V7.41665C8.83342 7.64677 9.01996 7.83331 9.25008 7.83331C9.4802 7.83331 9.66675 7.64677 9.66675 7.41665V4.08331Z" fill="#6A727B"/>
<path d="M10.9167 6.16665C11.1469 6.16665 11.3334 5.9801 11.3334 5.74998C11.3334 5.51986 11.1469 5.33331 10.9167 5.33331H7.58342C7.3533 5.33331 7.16675 5.51986 7.16675 5.74998C7.16675 5.9801 7.3533 6.16665 7.58342 6.16665H10.9167Z" fill="#6A727B"/>
</svg>
