<svg width="60" height="60" viewBox="0 0 60 60" fill="none" xmlns="http://www.w3.org/2000/svg">
<path fill-rule="evenodd" clip-rule="evenodd" d="M12.59 0.0813298C10.3408 0.555892 8.52135 2.18464 7.76746 4.39887L7.5 5.18413V30.0097V54.8353L7.76422 55.6111C8.42672 57.5555 9.90628 59.0591 11.8161 59.7286L12.59 60H30H47.41L48.1839 59.7286C50.0937 59.0591 51.5733 57.5555 52.2358 55.6111L52.5 54.8353V35.3505V15.8656L52.1995 15.032C52.0342 14.5735 51.7055 13.9028 51.4693 13.5417C50.9428 12.7369 39.5807 1.78003 38.5229 1.0571C38.13 0.788537 37.4701 0.445204 37.0566 0.294137L36.3046 0.0194712L24.6787 0.00162964C18.2844 -0.00823018 12.8445 0.0276877 12.59 0.0813298ZM34.5362 8.9723L34.5694 14.4625L34.9465 15.2395C35.3853 16.1437 36.0126 16.7646 36.927 17.1996L37.5771 17.5089L43.3323 17.5424L49.0874 17.5759V35.8032C49.0874 56.2752 49.1554 54.7139 48.2228 55.66C47.2931 56.6035 48.6672 56.5373 30 56.5373C11.3328 56.5373 12.7069 56.6035 11.7772 55.66C10.8361 54.7053 10.9126 56.9733 10.9126 30.0097C10.9126 3.04103 10.8358 5.31454 11.7793 4.35732C12.6689 3.45456 12.0088 3.50175 23.8935 3.49142L34.5029 3.48214L34.5362 8.9723ZM43.3323 10.3315C45.4159 12.3314 47.1208 13.9853 47.1208 14.0069C47.1208 14.0285 45.1464 14.0462 42.7332 14.0462C38.8987 14.0462 38.3227 14.023 38.1637 13.8618C38.0053 13.7009 37.982 13.1362 37.982 9.44663V5.21594L38.7629 5.95578C39.1923 6.36262 41.2486 8.33176 43.3323 10.3315ZM16.0906 23.6786C15.6022 23.9402 15.1928 24.6327 15.1928 25.1972C15.1928 25.7796 15.602 26.4559 16.1152 26.7216C16.5648 26.9543 16.7709 26.9579 29.653 26.9579C42.535 26.9579 42.7411 26.9543 43.1907 26.7216C43.7039 26.4559 44.1131 25.7796 44.1131 25.1972C44.1131 24.6148 43.7039 23.9386 43.1907 23.6728C42.7409 23.44 42.5402 23.4366 29.6287 23.4417C16.809 23.4467 16.5136 23.4519 16.0906 23.6786ZM16.0906 33.0689C15.6022 33.3305 15.1928 34.023 15.1928 34.5875C15.1928 35.1699 15.602 35.8462 16.1152 36.1119C16.5648 36.3446 16.7709 36.3482 29.653 36.3482C42.535 36.3482 42.7411 36.3446 43.1907 36.1119C43.7039 35.8462 44.1131 35.1699 44.1131 34.5875C44.1131 34.0051 43.7039 33.3289 43.1907 33.0631C42.7409 32.8303 42.5402 32.8269 29.6287 32.832C16.809 32.837 16.5136 32.8422 16.0906 33.0689ZM16.0906 42.4572C15.6023 42.721 15.1928 43.4147 15.1928 43.9778C15.1928 44.5641 15.6019 45.2365 16.1225 45.506C16.5707 45.7379 16.7456 45.7449 21.2605 45.7129C25.7742 45.681 25.9455 45.6715 26.2538 45.4378C26.8272 45.0032 27.0368 44.6125 27.0368 43.9778C27.0368 43.3431 26.8272 42.9524 26.2538 42.5178C25.9449 42.2838 25.7801 42.275 21.2288 42.2496C16.7247 42.2245 16.5046 42.2333 16.0906 42.4572Z" fill="#4092F1"/>
</svg>
