<svg width="158" height="158" viewBox="0 0 158 158" fill="none" xmlns="http://www.w3.org/2000/svg">
<g clip-path="url(#clip0_1_10427)">
<mask id="mask0_1_10427" style="mask-type:alpha" maskUnits="userSpaceOnUse" x="0" y="0" width="158" height="158">
<circle cx="79" cy="79" r="79" fill="#C4C4C4"/>
</mask>
<g mask="url(#mask0_1_10427)">
<circle cx="79" cy="79" r="79" fill="#E2EEFC"/>
<ellipse cx="102.607" cy="79" rx="82.2402" ry="76.2227" fill="#EDF5FE"/>
</g>
<path fill-rule="evenodd" clip-rule="evenodd" d="M47.5706 54.3491C41.5574 55.9683 37.0164 61.5702 37.0004 67.3881C36.9939 69.722 39.0676 70.9953 40.7094 69.6659C41.2253 69.248 41.4737 68.5957 41.674 67.1305C42.1656 63.5354 44.0054 60.8972 47.0389 59.4369C49.1784 58.4068 52.568 58.3778 54.7408 59.3706C57.8635 60.7975 59.931 63.7048 60.3297 67.2298C60.5479 69.1558 61.4092 70.2288 62.7371 70.2288C64.6081 70.2288 65.3777 68.4003 64.7695 65.3999C63.1568 57.4453 55.1577 52.3056 47.5706 54.3491ZM103.344 54.4331C100.804 55.0972 98.9768 56.1686 96.9796 58.1661C94.6194 60.5263 92.8521 64.6466 92.8521 67.7893C92.8521 68.9203 94.0637 70.2288 95.111 70.2288C96.5191 70.2288 97.3789 69.1934 97.6011 67.2298C97.9998 63.7048 100.067 60.7975 103.19 59.3706C105.33 58.3926 108.755 58.4078 110.823 59.4048C113.89 60.8827 115.767 63.5523 116.257 67.1305C116.457 68.5957 116.705 69.248 117.221 69.6659C118.863 70.9953 120.937 69.722 120.93 67.3881C120.918 62.9055 117.649 57.6588 113.584 55.5992C110.165 53.8665 106.924 53.4974 103.344 54.4331ZM17.1661 77.5579C16.5434 78.2519 13.1572 88.0059 13.143 89.1474C13.1198 90.9885 15.6596 92.0503 16.9155 90.7246C17.6373 89.9624 20.9498 80.3775 20.9498 79.0502C20.9498 78.4626 20.7134 77.8254 20.3854 77.5285C19.6367 76.8509 17.7855 76.8678 17.1661 77.5579ZM27.9539 77.5677C27.4639 78.1096 23.7271 88.4105 23.7271 89.2202C23.7271 89.4486 24.0524 90.0139 24.4499 90.4759C25.28 91.4412 26.8489 91.6183 27.6318 90.8351C28.223 90.2441 31.7506 80.2543 31.7506 79.1715C31.7506 78.7416 31.5342 78.0809 31.2701 77.7038C30.6581 76.8296 28.6946 76.7493 27.9539 77.5677ZM130.269 77.5575C129.582 78.2445 126.18 88.0084 126.18 89.2931C126.18 91.2085 128.744 92.0506 130.009 90.5509C130.364 90.13 131.487 87.3384 132.505 84.3475L134.354 78.9095L133.708 78.0408C132.889 76.9388 131.135 76.6922 130.269 77.5575ZM140.934 77.5579C140.265 78.3392 136.981 88.0004 136.981 89.1878C136.981 91.0712 139.37 92.0636 140.68 90.7246C141.35 90.0395 144.772 80.3608 144.788 79.1048C144.794 78.6404 144.546 77.9806 144.237 77.639C143.516 76.8425 141.588 76.795 140.934 77.5579ZM49.1722 92.5879C48.1502 93.6097 48.2107 94.2355 49.6206 97.2443C51.2398 100.7 52.7717 102.952 55.358 105.68C58.0906 108.563 60.3844 110.329 63.6564 112.069C80.0791 120.805 100.116 114.071 108.045 97.1508C109.436 94.183 109.404 92.9952 107.907 92.1556C106.375 91.2955 105.542 91.9281 103.807 95.2693C101.896 98.949 101.086 100.161 99.0546 102.385C95.8662 105.873 91.2363 108.693 86.1519 110.243C83.727 110.982 82.9503 111.069 78.8111 111.069C74.6726 111.069 73.8952 110.982 71.4721 110.243C63.0265 107.669 56.6522 102.018 53.1988 94.0451C52.2156 91.7754 50.5773 91.1826 49.1722 92.5879Z" fill="#4092F1"/>
</g>
<defs>
<clipPath id="clip0_1_10427">
<rect width="158" height="158" fill="white"/>
</clipPath>
</defs>
</svg>
