<svg width="14" height="14" viewBox="0 0 14 14" fill="none" xmlns="http://www.w3.org/2000/svg">
<path fill-rule="evenodd" clip-rule="evenodd" d="M2.8252 0.02261C2.1405 0.104385 1.48301 0.420743 0.975933 0.912291C0.449232 1.42291 0.115046 2.10962 0.0294666 2.8572C-0.0111933 3.21254 -0.0091677 8.23922 0.0317901 8.60733C0.116446 9.36787 0.480151 10.103 1.01951 10.6036C1.38408 10.942 1.91597 11.2381 2.35956 11.3494L2.55958 11.3996L2.56807 12.498L2.57656 13.5964L2.66724 13.7257C2.84388 13.9777 3.20043 14.0774 3.45377 13.9456C3.51028 13.9163 4.37811 13.3433 5.38233 12.6724L7.20815 11.4526H9.17708C11.0402 11.4526 11.162 11.4493 11.4435 11.3918C12.8036 11.1141 13.8131 10.0006 13.9682 8.60733C14.0092 8.23922 14.0112 3.21254 13.9705 2.8572C13.8525 1.82594 13.2771 0.945688 12.3766 0.418654C12.1525 0.287485 11.7924 0.145363 11.5031 0.0738838C11.246 0.0103735 11.2242 0.0100154 7.13404 0.00449406C4.87318 0.00142002 2.93419 0.00956773 2.8252 0.02261Z" fill="#DAE8FA"/>
</svg>
